<mxfile host="app.diagrams.net" modified="2022-03-25T12:49:22.724Z" agent="5.0 (X11)" etag="Ehy3USmv-sspxfdL_zUs" version="17.2.3" type="github">
  <diagram id="ZtQ4ni2a6mpPYWWodX7g" name="Page-1">
    <mxGraphModel dx="868" dy="452" grid="1" gridSize="10" guides="1" tooltips="1" connect="1" arrows="1" fold="1" page="1" pageScale="1" pageWidth="850" pageHeight="1100" math="0" shadow="0">
      <root>
        <mxCell id="0" />
        <mxCell id="1" parent="0" />
        <mxCell id="JzixeiLP8cSkkCDX1OSd-1" value="" style="whiteSpace=wrap;html=1;aspect=fixed;" vertex="1" parent="1">
          <mxGeometry x="210" y="190" width="440" height="440" as="geometry" />
        </mxCell>
      </root>
    </mxGraphModel>
  </diagram>
</mxfile>
